<mxfile host="app.diagrams.net" modified="2024-01-18T18:29:35.397Z" agent="Mozilla/5.0 (Macintosh; Intel Mac OS X 10_15_7) AppleWebKit/605.1.15 (KHTML, like Gecko) Version/17.2.1 Safari/605.1.15" version="22.1.21" etag="tqRw8GBR0haqheGPAoTL" type="github">
  <diagram name="Page-1" id="Vm5_31v0shh1pJfMV7hy">
    <mxGraphModel>
      <root>
        <mxCell id="0" />
        <mxCell id="1" parent="0" />
      </root>
    </mxGraphModel>
  </diagram>
</mxfile>
